<svg aria-hidden="true" style="position:absolute;width:0;height:0;overflow:hidden" xmlns="http://www.w3.org/2000/svg"><defs>
<symbol id="icon-2" viewBox="0 0 26 32"><path fill="none" stroke="#d41443" style="stroke:var(--color1, #d41443)" stroke-linejoin="round" stroke-linecap="round" stroke-width="6.4" d="M5.172 3.2 19.341 16 5.172 28.8"/></symbol>
<symbol id="icon-2-white" viewBox="0 0 26 32"><path fill="none" stroke="#FFFFFF" style="stroke:var(--color1, #FFFFFF)" stroke-linejoin="round" stroke-linecap="round" stroke-width="6.4" d="M5.172 3.2 19.341 16 5.172 28.8"/></symbol>
<symbol id="icon-ice-cream" viewBox="0 0 22 32"><path fill="#fc7e9c" style="fill:var(--color2, #fc7e9c)" d="M11.01 2.123a7.717 7.717 0 1 1 0 15.434 7.717 7.717 0 0 1 0-15.434z"/><path fill="#004463" style="fill:var(--color3, #004463)" d="M11.01 18.96c-5.051 0-9.12-4.069-9.12-9.12S5.959.72 11.01.72c5.051 0 9.12 4.069 9.12 9.12s-4.069 9.12-9.12 9.12zm0-16.837c-4.28 0-7.717 3.438-7.717 7.717s3.437 7.717 7.717 7.717c4.279 0 7.717-3.438 7.717-7.717s-3.438-7.717-7.717-7.717z"/><path fill="#fc0001" style="fill:var(--color4, #fc0001)" d="M13.745 2.615c2.175 1.403 3.578 3.788 3.578 6.524a7.695 7.695 0 0 1-7.717 7.717c-.982 0-1.894-.21-2.736-.491 1.192.772 2.595 1.193 4.139 1.193a7.695 7.695 0 0 0 7.717-7.717c0-3.297-2.105-6.103-4.981-7.226zM9.607 3.526a.702.702 0 1 1 0 1.403.702.702 0 0 1 0-1.403zM9.607 8.437a.702.702 0 1 1 0 1.403.702.702 0 0 1 0-1.403z"/><path fill="#fc0001" style="fill:var(--color4, #fc0001)" d="M13.114 7.736a.7.7 0 1 1 0 1.404.702.702 0 1 1 0-1.404zM6.8 5.631a.702.702 0 1 1 0 1.403.702.702 0 0 1 0-1.403zM16.622 9.139a.702.702 0 1 1 0 1.403.702.702 0 0 1 0-1.403zM5.397 9.139a.702.702 0 1 1 0 1.403.702.702 0 0 1 0-1.403zM13.816 4.228a.702.702 0 1 1 0 1.403.702.702 0 0 1 0-1.403z"/><path fill="#ffcb5b" style="fill:var(--color5, #ffcb5b)" d="M3.854 19.943c0 .21.21.421.491.421.912 0 1.754.702 1.894 1.613l1.052 7.577c.07.351.351.632.702.632h5.964c.351 0 .631-.281.702-.632l1.052-7.577c.21-.912 1.052-1.613 1.964-1.613.28 0 .421-.21.491-.421l.491-3.789H3.363l.491 3.789z"/><path fill="#d88e23" style="fill:var(--color6, #d88e23)" d="M18.025 16.154H3.363l.07.702H15.5c.841 0 1.473.771 1.403 1.544l-.071.771c0 .281-.21.421-.491.421-.912 0-1.754.702-1.894 1.613l-.071.561H6.168c0 .07.07.14.07.21l.07.491h6.384c.841 0 1.543.771 1.403 1.613l-.702 4.841c-.071.351-.351.631-.702.631H7.289v.071c.07.351.351.631.702.631h5.963c.351 0 .631-.28.702-.631l1.052-7.577c.21-.982.982-1.684 1.964-1.684.281 0 .491-.21.491-.421l.491-3.789h-.632z"/><path fill="#014463" style="fill:var(--color7, #014463)" d="M19.919 14.961c-.07-.14-.281-.21-.491-.21H2.591c-.21 0-.421.07-.491.21-.14.211-.211.351-.211.562l.561 4.56c.14.982.912 1.684 1.894 1.684.281 0 .491.21.491.421l1.052 7.577a2.118 2.118 0 0 0 2.105 1.824h5.963a2.118 2.118 0 0 0 2.105-1.824l1.052-7.577c.07-.28.281-.421.491-.421.982 0 1.754-.701 1.894-1.684l.561-4.56c.07-.211 0-.351-.14-.561zm-1.753 4.982c0 .21-.21.421-.491.421-.912 0-1.754.702-1.894 1.613l-1.052 7.577c-.07.351-.351.632-.702.632H8.064c-.351 0-.631-.281-.702-.632L6.31 21.977c0-.07-.07-.14-.07-.21h8.278c.421 0 .702-.281.702-.701s-.28-.702-.702-.702H4.346c-.281 0-.421-.21-.491-.421l-.491-3.789h15.223l-.421 3.789z"/><path fill="#ffcb5b" style="fill:var(--color5, #ffcb5b)" d="M2.24 14.751h17.539c.21 0 .351-.14.351-.351s-.14-.351-.351-.351H2.24c-.21 0-.351.14-.351.351s.141.351.351.351z"/><path fill="#004463" style="fill:var(--color3, #004463)" d="M19.779 16.154H2.24c-.982 0-1.754-.772-1.754-1.754s.772-1.754 1.754-1.754h17.539c.982 0 1.754.772 1.754 1.754s-.771 1.754-1.754 1.754zM2.24 14.05c-.21 0-.351.14-.351.351s.14.351.351.351h17.539c.21 0 .351-.14.351-.351s-.14-.351-.351-.351H2.24z"/><path fill="#fc7e9c" style="fill:var(--color2, #fc7e9c)" d="M7.502 11.945v4.209c0 .771.631 1.403 1.403 1.403s1.403-.632 1.403-1.403c0-.772.631-1.403 1.403-1.403s1.403.631 1.403 1.403v1.403c0 .771.632 1.403 1.403 1.403s1.403-.632 1.403-1.403v-5.612H7.501z"/><path fill="#014463" style="fill:var(--color7, #014463)" d="M15.921 11.243c-.421 0-.702.281-.702.702v5.612c0 .421-.281.702-.702.702s-.702-.281-.702-.702v-3.508c0-.421-.281-.702-.701-.702s-.702.281-.702.702v.14c-.21-.07-.421-.14-.702-.14s-.491.07-.702.14v-2.245c0-.421-.281-.702-.702-.702s-.702.281-.702.702v4.209c0 .421-.281.702-.702.702s-.702-.281-.702-.702v-4.209c0-.421-.281-.702-.702-.702s-.702.281-.702.702v4.209c0 1.193.912 2.105 2.105 2.105s2.104-.912 2.104-2.105c0-.421.281-.702.702-.702s.702.281.702.702v1.403c0 1.193.912 2.105 2.105 2.105s2.105-.912 2.105-2.105v-5.612c0-.421-.281-.702-.701-.702z"/><path fill="#fc0001" style="fill:var(--color4, #fc0001)" d="M14.517 18.259v-5.612c0-.421.281-.702.702-.702v5.612c0 .421-.281.702-.702.702zM8.905 16.856v-4.209c0-.421.281-.702.702-.702v4.209c0 .421-.28.702-.702.702z"/><path fill="#f6b545" style="fill:var(--color8, #f6b545)" d="M16.622 14.05h.702v.702h-.702v-.702z"/></symbol><symbol id="icon-ice-cream1" viewBox="0 0 22 32"><path d="M11.01 2.123a7.717 7.717 0 1 1 0 15.434 7.717 7.717 0 0 1 0-15.434z"/><path d="M11.01 18.96c-5.051 0-9.12-4.069-9.12-9.12S5.959.72 11.01.72c5.051 0 9.12 4.069 9.12 9.12s-4.069 9.12-9.12 9.12zm0-16.837c-4.28 0-7.717 3.438-7.717 7.717s3.437 7.717 7.717 7.717c4.279 0 7.717-3.438 7.717-7.717s-3.438-7.717-7.717-7.717z"/><path d="M13.745 2.615c2.175 1.403 3.578 3.788 3.578 6.524a7.695 7.695 0 0 1-7.717 7.717c-.982 0-1.894-.21-2.736-.491 1.192.772 2.595 1.193 4.139 1.193a7.695 7.695 0 0 0 7.717-7.717c0-3.297-2.105-6.103-4.981-7.226zM9.607 3.526a.702.702 0 1 1 0 1.403.702.702 0 0 1 0-1.403zM9.607 8.437a.702.702 0 1 1 0 1.403.702.702 0 0 1 0-1.403z"/><path d="M13.114 7.736a.7.7 0 1 1 0 1.404.702.702 0 1 1 0-1.404zM6.8 5.631a.702.702 0 1 1 0 1.403.702.702 0 0 1 0-1.403zM16.622 9.139a.702.702 0 1 1 0 1.403.702.702 0 0 1 0-1.403zM5.397 9.139a.702.702 0 1 1 0 1.403.702.702 0 0 1 0-1.403zM13.816 4.228a.702.702 0 1 1 0 1.403.702.702 0 0 1 0-1.403zM3.854 19.943c0 .21.21.421.491.421.912 0 1.754.702 1.894 1.613l1.052 7.577c.07.351.351.632.702.632h5.964c.351 0 .631-.281.702-.632l1.052-7.577c.21-.912 1.052-1.613 1.964-1.613.28 0 .421-.21.491-.421l.491-3.789H3.363l.491 3.789z"/><path d="M18.025 16.154H3.363l.07.702H15.5c.841 0 1.473.771 1.403 1.544l-.071.771c0 .281-.21.421-.491.421-.912 0-1.754.702-1.894 1.613l-.071.561H6.168c0 .07.07.14.07.21l.07.491h6.384c.841 0 1.543.771 1.403 1.613l-.702 4.841c-.071.351-.351.631-.702.631H7.289v.071c.07.351.351.631.702.631h5.963c.351 0 .631-.28.702-.631l1.052-7.577c.21-.982.982-1.684 1.964-1.684.281 0 .491-.21.491-.421l.491-3.789h-.632z"/><path d="M19.919 14.961c-.07-.14-.281-.21-.491-.21H2.591c-.21 0-.421.07-.491.21-.14.211-.211.351-.211.562l.561 4.56c.14.982.912 1.684 1.894 1.684.281 0 .491.21.491.421l1.052 7.577a2.118 2.118 0 0 0 2.105 1.824h5.963a2.118 2.118 0 0 0 2.105-1.824l1.052-7.577c.07-.28.281-.421.491-.421.982 0 1.754-.701 1.894-1.684l.561-4.56c.07-.211 0-.351-.14-.561zm-1.753 4.982c0 .21-.21.421-.491.421-.912 0-1.754.702-1.894 1.613l-1.052 7.577c-.07.351-.351.632-.702.632H8.064c-.351 0-.631-.281-.702-.632L6.31 21.977c0-.07-.07-.14-.07-.21h8.278c.421 0 .702-.281.702-.701s-.28-.702-.702-.702H4.346c-.281 0-.421-.21-.491-.421l-.491-3.789h15.223l-.421 3.789zM2.24 14.751h17.539c.21 0 .351-.14.351-.351s-.14-.351-.351-.351H2.24c-.21 0-.351.14-.351.351s.141.351.351.351z"/><path d="M19.779 16.154H2.24c-.982 0-1.754-.772-1.754-1.754s.772-1.754 1.754-1.754h17.539c.982 0 1.754.772 1.754 1.754s-.771 1.754-1.754 1.754zM2.24 14.05c-.21 0-.351.14-.351.351s.14.351.351.351h17.539c.21 0 .351-.14.351-.351s-.14-.351-.351-.351H2.24z"/><path d="M7.502 11.945v4.209c0 .771.631 1.403 1.403 1.403s1.403-.632 1.403-1.403c0-.772.631-1.403 1.403-1.403s1.403.631 1.403 1.403v1.403c0 .771.632 1.403 1.403 1.403s1.403-.632 1.403-1.403v-5.612H7.501z"/><path d="M15.921 11.243c-.421 0-.702.281-.702.702v5.612c0 .421-.281.702-.702.702s-.702-.281-.702-.702v-3.508c0-.421-.281-.702-.701-.702s-.702.281-.702.702v.14c-.21-.07-.421-.14-.702-.14s-.491.07-.702.14v-2.245c0-.421-.281-.702-.702-.702s-.702.281-.702.702v4.209c0 .421-.281.702-.702.702s-.702-.281-.702-.702v-4.209c0-.421-.281-.702-.702-.702s-.702.281-.702.702v4.209c0 1.193.912 2.105 2.105 2.105s2.104-.912 2.104-2.105c0-.421.281-.702.702-.702s.702.281.702.702v1.403c0 1.193.912 2.105 2.105 2.105s2.105-.912 2.105-2.105v-5.612c0-.421-.281-.702-.701-.702z"/><path d="M14.517 18.259v-5.612c0-.421.281-.702.702-.702v5.612c0 .421-.281.702-.702.702zM8.905 16.856v-4.209c0-.421.281-.702.702-.702v4.209c0 .421-.28.702-.702.702zM16.622 14.05h.702v.702h-.702v-.702z"/></symbol></defs></svg>