<svg aria-hidden="true" style="position: absolute; width: 0; height: 0; overflow: hidden;" version="1.1" xmlns="http://www.w3.org/2000/svg" xmlns:xlink="http://www.w3.org/1999/xlink">
<defs>
<symbol id="icon-ice-cream" viewBox="0 0 22 32">
<path fill="#fc7e9c" style="fill: var(--color1, #fc7e9c)" d="M11.010 2.123c4.262 0 7.717 3.455 7.717 7.717s-3.455 7.717-7.717 7.717-7.717-3.455-7.717-7.717c0-4.262 3.455-7.717 7.717-7.717z"></path>
<path fill="#004463" style="fill: var(--color2, #004463)" d="M11.010 18.96c-5.051 0-9.12-4.069-9.12-9.12s4.069-9.12 9.12-9.12c5.051 0 9.12 4.069 9.12 9.12s-4.069 9.12-9.12 9.12zM11.010 2.123c-4.28 0-7.717 3.438-7.717 7.717s3.437 7.717 7.717 7.717c4.279 0 7.717-3.438 7.717-7.717s-3.438-7.717-7.717-7.717z"></path>
<path fill="#fc0001" style="fill: var(--color3, #fc0001)" d="M13.745 2.615c2.175 1.403 3.578 3.788 3.578 6.524 0 4.279-3.438 7.717-7.717 7.717-0.982 0-1.894-0.21-2.736-0.491 1.192 0.772 2.595 1.193 4.139 1.193 4.279 0 7.717-3.438 7.717-7.717 0-3.297-2.105-6.103-4.981-7.226z"></path>
<path fill="#fc0001" style="fill: var(--color3, #fc0001)" d="M9.607 3.526c0.387 0 0.702 0.313 0.702 0.702s-0.314 0.702-0.702 0.702c-0.387 0-0.702-0.313-0.702-0.702s0.314-0.702 0.702-0.702z"></path>
<path fill="#fc0001" style="fill: var(--color3, #fc0001)" d="M9.607 8.437c0.387 0 0.702 0.313 0.702 0.702s-0.314 0.702-0.702 0.702c-0.387 0-0.702-0.313-0.702-0.702s0.314-0.702 0.702-0.702z"></path>
<path fill="#fc0001" style="fill: var(--color3, #fc0001)" d="M13.114 7.736c0.387 0 0.701 0.313 0.701 0.702s-0.314 0.702-0.701 0.702c-0.387 0-0.702-0.313-0.702-0.702s0.314-0.702 0.702-0.702z"></path>
<path fill="#fc0001" style="fill: var(--color3, #fc0001)" d="M6.8 5.631c0.387 0 0.702 0.313 0.702 0.702s-0.314 0.702-0.702 0.702c-0.387 0-0.702-0.313-0.702-0.702s0.314-0.702 0.702-0.702z"></path>
<path fill="#fc0001" style="fill: var(--color3, #fc0001)" d="M16.622 9.139c0.387 0 0.702 0.313 0.702 0.702s-0.314 0.702-0.702 0.702c-0.387 0-0.701-0.313-0.701-0.702s0.314-0.702 0.701-0.702z"></path>
<path fill="#fc0001" style="fill: var(--color3, #fc0001)" d="M5.397 9.139c0.387 0 0.702 0.313 0.702 0.702s-0.314 0.702-0.702 0.702-0.702-0.313-0.702-0.702 0.314-0.702 0.702-0.702z"></path>
<path fill="#fc0001" style="fill: var(--color3, #fc0001)" d="M13.816 4.228c0.387 0 0.702 0.313 0.702 0.702s-0.314 0.702-0.702 0.702c-0.387 0-0.701-0.313-0.701-0.702s0.314-0.702 0.701-0.702z"></path>
<path fill="#ffcb5b" style="fill: var(--color4, #ffcb5b)" d="M3.854 19.943c0 0.21 0.21 0.421 0.491 0.421 0.912 0 1.754 0.702 1.894 1.613l1.052 7.577c0.070 0.351 0.351 0.632 0.702 0.632h5.964c0.351 0 0.631-0.281 0.702-0.632l1.052-7.577c0.21-0.912 1.052-1.613 1.964-1.613 0.28 0 0.421-0.21 0.491-0.421l0.491-3.789h-15.294l0.491 3.789z"></path>
<path fill="#d88e23" style="fill: var(--color5, #d88e23)" d="M18.025 16.154h-14.662l0.070 0.702h12.067c0.841 0 1.473 0.771 1.403 1.544l-0.071 0.771c0 0.281-0.21 0.421-0.491 0.421-0.912 0-1.754 0.702-1.894 1.613l-0.071 0.561h-8.208c0 0.070 0.070 0.14 0.070 0.21l0.070 0.491h6.384c0.841 0 1.543 0.771 1.403 1.613l-0.702 4.841c-0.071 0.351-0.351 0.631-0.702 0.631h-5.402v0.071c0.070 0.351 0.351 0.631 0.702 0.631h5.963c0.351 0 0.631-0.28 0.702-0.631l1.052-7.577c0.21-0.982 0.982-1.684 1.964-1.684 0.281 0 0.491-0.21 0.491-0.421l0.491-3.789h-0.632z"></path>
<path fill="#014463" style="fill: var(--color6, #014463)" d="M19.919 14.961c-0.070-0.14-0.281-0.21-0.491-0.21h-16.837c-0.21 0-0.421 0.070-0.491 0.21-0.14 0.211-0.211 0.351-0.211 0.562l0.561 4.56c0.14 0.982 0.912 1.684 1.894 1.684 0.281 0 0.491 0.21 0.491 0.421l1.052 7.577c0.14 1.052 1.052 1.824 2.105 1.824h5.963c1.052 0 1.964-0.771 2.105-1.824l1.052-7.577c0.070-0.28 0.281-0.421 0.491-0.421 0.982 0 1.754-0.701 1.894-1.684l0.561-4.56c0.070-0.211 0-0.351-0.14-0.561zM18.166 19.943c0 0.21-0.21 0.421-0.491 0.421-0.912 0-1.754 0.702-1.894 1.613l-1.052 7.577c-0.070 0.351-0.351 0.632-0.702 0.632h-5.963c-0.351 0-0.631-0.281-0.702-0.632l-1.052-7.577c0-0.070-0.070-0.14-0.070-0.21h8.278c0.421 0 0.702-0.281 0.702-0.701s-0.28-0.702-0.702-0.702h-10.172c-0.281 0-0.421-0.21-0.491-0.421l-0.491-3.789h15.223l-0.421 3.789z"></path>
<path fill="#ffcb5b" style="fill: var(--color4, #ffcb5b)" d="M2.24 14.751h17.539c0.21 0 0.351-0.14 0.351-0.351s-0.14-0.351-0.351-0.351h-17.539c-0.21 0-0.351 0.14-0.351 0.351s0.141 0.351 0.351 0.351z"></path>
<path fill="#004463" style="fill: var(--color2, #004463)" d="M19.779 16.154h-17.539c-0.982 0-1.754-0.772-1.754-1.754s0.772-1.754 1.754-1.754h17.539c0.982 0 1.754 0.772 1.754 1.754s-0.771 1.754-1.754 1.754zM2.24 14.050c-0.21 0-0.351 0.14-0.351 0.351s0.14 0.351 0.351 0.351h17.539c0.21 0 0.351-0.14 0.351-0.351s-0.14-0.351-0.351-0.351h-17.539z"></path>
<path fill="#fc7e9c" style="fill: var(--color1, #fc7e9c)" d="M7.502 11.945v4.209c0 0.771 0.631 1.403 1.403 1.403s1.403-0.632 1.403-1.403c0-0.772 0.631-1.403 1.403-1.403s1.403 0.631 1.403 1.403v1.403c0 0.771 0.632 1.403 1.403 1.403s1.403-0.632 1.403-1.403v-5.612h-8.419z"></path>
<path fill="#014463" style="fill: var(--color6, #014463)" d="M15.921 11.243c-0.421 0-0.702 0.281-0.702 0.702v5.612c0 0.421-0.281 0.702-0.702 0.702s-0.702-0.281-0.702-0.702v-3.508c0-0.421-0.281-0.702-0.701-0.702s-0.702 0.281-0.702 0.702v0.14c-0.21-0.070-0.421-0.14-0.702-0.14s-0.491 0.070-0.702 0.14v-2.245c0-0.421-0.281-0.702-0.702-0.702s-0.702 0.281-0.702 0.702v4.209c0 0.421-0.281 0.702-0.702 0.702s-0.702-0.281-0.702-0.702v-4.209c0-0.421-0.281-0.702-0.702-0.702s-0.702 0.281-0.702 0.702v4.209c0 1.193 0.912 2.105 2.105 2.105s2.104-0.912 2.104-2.105c0-0.421 0.281-0.702 0.702-0.702s0.702 0.281 0.702 0.702v1.403c0 1.193 0.912 2.105 2.105 2.105s2.105-0.912 2.105-2.105v-5.612c0-0.421-0.281-0.702-0.701-0.702z"></path>
<path fill="#fc0001" style="fill: var(--color3, #fc0001)" d="M14.517 18.259v0-5.612c0-0.421 0.281-0.702 0.702-0.702v5.612c0 0.421-0.281 0.702-0.702 0.702z"></path>
<path fill="#fc0001" style="fill: var(--color3, #fc0001)" d="M8.905 16.856v0-4.209c0-0.421 0.281-0.702 0.702-0.702v4.209c0 0.421-0.28 0.702-0.702 0.702z"></path>
<path fill="#f6b545" style="fill: var(--color7, #f6b545)" d="M16.622 14.050h0.702v0.702h-0.702v-0.702z"></path>
</symbol>
<symbol id="icon-ice-cream1" viewBox="0 0 22 32">
<path d="M11.010 2.123c4.262 0 7.717 3.455 7.717 7.717s-3.455 7.717-7.717 7.717-7.717-3.455-7.717-7.717c0-4.262 3.455-7.717 7.717-7.717z"></path>
<path d="M11.010 18.96c-5.051 0-9.12-4.069-9.12-9.12s4.069-9.12 9.12-9.12c5.051 0 9.12 4.069 9.12 9.12s-4.069 9.12-9.12 9.12zM11.010 2.123c-4.28 0-7.717 3.438-7.717 7.717s3.437 7.717 7.717 7.717c4.279 0 7.717-3.438 7.717-7.717s-3.438-7.717-7.717-7.717z"></path>
<path d="M13.745 2.615c2.175 1.403 3.578 3.788 3.578 6.524 0 4.279-3.438 7.717-7.717 7.717-0.982 0-1.894-0.21-2.736-0.491 1.192 0.772 2.595 1.193 4.139 1.193 4.279 0 7.717-3.438 7.717-7.717 0-3.297-2.105-6.103-4.981-7.226z"></path>
<path d="M9.607 3.526c0.387 0 0.702 0.313 0.702 0.702s-0.314 0.702-0.702 0.702c-0.387 0-0.702-0.313-0.702-0.702s0.314-0.702 0.702-0.702z"></path>
<path d="M9.607 8.437c0.387 0 0.702 0.313 0.702 0.702s-0.314 0.702-0.702 0.702c-0.387 0-0.702-0.313-0.702-0.702s0.314-0.702 0.702-0.702z"></path>
<path d="M13.114 7.736c0.387 0 0.701 0.313 0.701 0.702s-0.314 0.702-0.701 0.702c-0.387 0-0.702-0.313-0.702-0.702s0.314-0.702 0.702-0.702z"></path>
<path d="M6.8 5.631c0.387 0 0.702 0.313 0.702 0.702s-0.314 0.702-0.702 0.702c-0.387 0-0.702-0.313-0.702-0.702s0.314-0.702 0.702-0.702z"></path>
<path d="M16.622 9.139c0.387 0 0.702 0.313 0.702 0.702s-0.314 0.702-0.702 0.702c-0.387 0-0.701-0.313-0.701-0.702s0.314-0.702 0.701-0.702z"></path>
<path d="M5.397 9.139c0.387 0 0.702 0.313 0.702 0.702s-0.314 0.702-0.702 0.702-0.702-0.313-0.702-0.702 0.314-0.702 0.702-0.702z"></path>
<path d="M13.816 4.228c0.387 0 0.702 0.313 0.702 0.702s-0.314 0.702-0.702 0.702c-0.387 0-0.701-0.313-0.701-0.702s0.314-0.702 0.701-0.702z"></path>
<path d="M3.854 19.943c0 0.21 0.21 0.421 0.491 0.421 0.912 0 1.754 0.702 1.894 1.613l1.052 7.577c0.070 0.351 0.351 0.632 0.702 0.632h5.964c0.351 0 0.631-0.281 0.702-0.632l1.052-7.577c0.21-0.912 1.052-1.613 1.964-1.613 0.28 0 0.421-0.21 0.491-0.421l0.491-3.789h-15.294l0.491 3.789z"></path>
<path d="M18.025 16.154h-14.662l0.070 0.702h12.067c0.841 0 1.473 0.771 1.403 1.544l-0.071 0.771c0 0.281-0.21 0.421-0.491 0.421-0.912 0-1.754 0.702-1.894 1.613l-0.071 0.561h-8.208c0 0.070 0.070 0.14 0.070 0.21l0.070 0.491h6.384c0.841 0 1.543 0.771 1.403 1.613l-0.702 4.841c-0.071 0.351-0.351 0.631-0.702 0.631h-5.402v0.071c0.070 0.351 0.351 0.631 0.702 0.631h5.963c0.351 0 0.631-0.28 0.702-0.631l1.052-7.577c0.21-0.982 0.982-1.684 1.964-1.684 0.281 0 0.491-0.21 0.491-0.421l0.491-3.789h-0.632z"></path>
<path d="M19.919 14.961c-0.070-0.14-0.281-0.21-0.491-0.21h-16.837c-0.21 0-0.421 0.070-0.491 0.21-0.14 0.211-0.211 0.351-0.211 0.562l0.561 4.56c0.14 0.982 0.912 1.684 1.894 1.684 0.281 0 0.491 0.21 0.491 0.421l1.052 7.577c0.14 1.052 1.052 1.824 2.105 1.824h5.963c1.052 0 1.964-0.771 2.105-1.824l1.052-7.577c0.070-0.28 0.281-0.421 0.491-0.421 0.982 0 1.754-0.701 1.894-1.684l0.561-4.56c0.070-0.211 0-0.351-0.14-0.561zM18.166 19.943c0 0.21-0.21 0.421-0.491 0.421-0.912 0-1.754 0.702-1.894 1.613l-1.052 7.577c-0.070 0.351-0.351 0.632-0.702 0.632h-5.963c-0.351 0-0.631-0.281-0.702-0.632l-1.052-7.577c0-0.070-0.070-0.14-0.070-0.21h8.278c0.421 0 0.702-0.281 0.702-0.701s-0.28-0.702-0.702-0.702h-10.172c-0.281 0-0.421-0.21-0.491-0.421l-0.491-3.789h15.223l-0.421 3.789z"></path>
<path d="M2.24 14.751h17.539c0.21 0 0.351-0.14 0.351-0.351s-0.14-0.351-0.351-0.351h-17.539c-0.21 0-0.351 0.14-0.351 0.351s0.141 0.351 0.351 0.351z"></path>
<path d="M19.779 16.154h-17.539c-0.982 0-1.754-0.772-1.754-1.754s0.772-1.754 1.754-1.754h17.539c0.982 0 1.754 0.772 1.754 1.754s-0.771 1.754-1.754 1.754zM2.24 14.050c-0.21 0-0.351 0.14-0.351 0.351s0.14 0.351 0.351 0.351h17.539c0.21 0 0.351-0.14 0.351-0.351s-0.14-0.351-0.351-0.351h-17.539z"></path>
<path d="M7.502 11.945v4.209c0 0.771 0.631 1.403 1.403 1.403s1.403-0.632 1.403-1.403c0-0.772 0.631-1.403 1.403-1.403s1.403 0.631 1.403 1.403v1.403c0 0.771 0.632 1.403 1.403 1.403s1.403-0.632 1.403-1.403v-5.612h-8.419z"></path>
<path d="M15.921 11.243c-0.421 0-0.702 0.281-0.702 0.702v5.612c0 0.421-0.281 0.702-0.702 0.702s-0.702-0.281-0.702-0.702v-3.508c0-0.421-0.281-0.702-0.701-0.702s-0.702 0.281-0.702 0.702v0.14c-0.21-0.070-0.421-0.14-0.702-0.14s-0.491 0.070-0.702 0.14v-2.245c0-0.421-0.281-0.702-0.702-0.702s-0.702 0.281-0.702 0.702v4.209c0 0.421-0.281 0.702-0.702 0.702s-0.702-0.281-0.702-0.702v-4.209c0-0.421-0.281-0.702-0.702-0.702s-0.702 0.281-0.702 0.702v4.209c0 1.193 0.912 2.105 2.105 2.105s2.104-0.912 2.104-2.105c0-0.421 0.281-0.702 0.702-0.702s0.702 0.281 0.702 0.702v1.403c0 1.193 0.912 2.105 2.105 2.105s2.105-0.912 2.105-2.105v-5.612c0-0.421-0.281-0.702-0.701-0.702z"></path>
<path d="M14.517 18.259v0-5.612c0-0.421 0.281-0.702 0.702-0.702v5.612c0 0.421-0.281 0.702-0.702 0.702z"></path>
<path d="M8.905 16.856v0-4.209c0-0.421 0.281-0.702 0.702-0.702v4.209c0 0.421-0.28 0.702-0.702 0.702z"></path>
<path d="M16.622 14.050h0.702v0.702h-0.702v-0.702z"></path>
</symbol>
</defs>
</svg>
